<?xml version="1.0" encoding="UTF-8" standalone="no"?>
<svg
   xmlns:dc="http://purl.org/dc/elements/1.1/"
   xmlns:cc="http://creativecommons.org/ns#"
   xmlns:rdf="http://www.w3.org/1999/02/22-rdf-syntax-ns#"
   xmlns:svg="http://www.w3.org/2000/svg"
   xmlns="http://www.w3.org/2000/svg"
   xmlns:sodipodi="http://sodipodi.sourceforge.net/DTD/sodipodi-0.dtd"
   xmlns:inkscape="http://www.inkscape.org/namespaces/inkscape"
   version="1.0"
   width="760.000000pt"
   height="1280.000000pt"
   viewBox="0 0 760.000000 1280.000000"
   preserveAspectRatio="xMidYMid meet"
   id="svg8"
   sodipodi:docname="uk_map.svg"
   inkscape:version="0.92.3 (2405546, 2018-03-11)">
  <defs
     id="defs12" />
  <sodipodi:namedview
     pagecolor="#ffffff"
     bordercolor="#666666"
     borderopacity="1"
     objecttolerance="10"
     gridtolerance="10"
     guidetolerance="10"
     inkscape:pageopacity="0"
     inkscape:pageshadow="2"
     inkscape:window-width="3840"
     inkscape:window-height="2049"
     id="namedview10"
     showgrid="false"
     inkscape:zoom="0.78223688"
     inkscape:cx="351.44133"
     inkscape:cy="812.95453"
     inkscape:window-x="0"
     inkscape:window-y="55"
     inkscape:window-maximized="1"
     inkscape:current-layer="svg8" />
  <metadata
     id="metadata2">
Created by potrace 1.15, written by Peter Selinger 2001-2017
<rdf:RDF>
  <cc:Work
     rdf:about="">
    <dc:format>image/svg+xml</dc:format>
    <dc:type
       rdf:resource="http://purl.org/dc/dcmitype/StillImage" />
  </cc:Work>
</rdf:RDF>
</metadata>
  <path
     style="fill:#5f60ff;stroke:none;stroke-width:0.1;fill-opacity:1"
     inkscape:connector-curvature="0"
     id="path4"
     d="m 341.4,0.8 c -1.9,1.2 -3.1,4.3 -5.8,14.7 -4,14.8 -5.8,18.2 -10.9,19.6 -4.9,1.3 -10.3,5.1 -11.2,7.8 -0.3,1.1 0.1,3.4 1,5.1 1.6,3.1 10.3,9.5 16.4,12 l 3.1,1.2 -1.8,3 c -0.9,1.6 -3,3.7 -4.6,4.5 -4.3,2.2 -8.7,0.5 -17.4,-6.7 -9.4,-7.6 -10.7,-7.7 -9.9,-0.8 0.4,2.9 1,9.3 1.3,14.2 l 0.7,9 -8.3,-5.8 c -4.5,-3.1 -8.4,-5.5 -8.5,-5.4 -2.9,4.2 -3.5,5.9 -3.5,10.1 0,4.6 0.3,5.1 6.4,11 7.7,7.6 8.4,9 5.1,12.3 -4.2,4.2 -7.6,3.3 -15.3,-4.1 -3.7,-3.6 -7.2,-6.5 -7.9,-6.5 -4.1,0 -5.7,11.7 -2.8,20 4.3,12.1 -2.3,10.2 -11.2,-3.1 -5.6,-8.6 -7.9,-10.1 -10.5,-6.9 -5.2,6.4 0,24.9 14.5,51.4 l 3.2,6 v 17 c 0,9.4 -0.3,18.4 -0.8,19.9 l -0.8,2.8 -10.2,-0.7 c -11,-0.7 -14.7,0.2 -14.7,3.4 0,2.3 3.9,6 11.5,10.7 7.5,4.7 10.5,7.4 10.5,9.5 0,2 -3.3,5.2 -7.5,7.3 -7.5,3.8 -14.8,3 -20.8,-2.3 -1.8,-1.5 -4.2,-3 -5.5,-3.4 -5.4,-1.7 -15.1,4.5 -17.2,11 -1.5,4.5 -0.1,9 4.8,15.5 5,6.6 6.5,10.2 4.9,11.8 -1.8,1.8 -4,1.3 -15.2,-2.9 -12.5,-4.8 -19.5,-5.3 -21.9,-1.8 -0.9,1.2 -1.4,3.1 -1.1,4.2 0.2,1.2 0.6,4.5 1,7.3 l 0.6,5.3 h -5 c -7,0 -10.1,1.4 -10.1,4.5 0,3.8 3.1,6.2 9.7,7.4 3.2,0.7 6.8,1.4 8.1,1.7 1.2,0.2 3.2,1.4 4.3,2.5 2.8,2.8 2.1,8.8 -1.8,14.2 -5.1,7.3 -7,8.1 -20.3,8.8 -15.7,0.8 -17.9,2.5 -12,9.3 4.5,5 10.7,7.1 21,7 10.5,-0.1 17.4,-1.7 26.5,-5.9 9.1,-4.3 9.9,-5.1 18.9,-17.6 6.2,-8.8 9.1,-11.8 16.3,-17.2 4.9,-3.5 12.1,-8.3 16.1,-10.5 7.9,-4.5 8.3,-4.4 8.6,2 0.1,3.1 -0.6,3.7 -11.6,11.2 l -11.7,8.1 -3.7,8 c -2.9,6.5 -5.2,9.6 -12.1,16.6 -4.7,4.8 -8.3,9.2 -7.9,9.7 0.8,1.3 -1.3,28.8 -2.4,31.7 -0.4,1.1 -5.9,5.2 -12.1,9 l -11.4,7 5.4,0.3 c 2.9,0.2 7.3,-0.1 9.7,-0.6 2.4,-0.5 4.4,-0.7 4.4,-0.3 0,0.4 -3.6,4.2 -8,8.6 l -8,7.9 5.1,5.2 5.1,5.1 -3.6,2.2 c -4.4,2.7 -12.1,11.3 -14.6,16.1 -1,1.9 -2.4,6.5 -3,10 -1.8,9.5 -8.8,23.4 -15,30 -5.8,6 -7.2,9.1 -5.7,13.2 1.7,5.1 10.3,5.4 22.2,0.6 l 6,-2.4 5.1,-14.9 c 2.9,-8.3 6.7,-20 8.5,-26.1 l 3.4,-11.1 7.1,-4.7 c 7.1,-4.6 7.1,-4.7 7.8,-9.9 1,-8.7 0.7,-13.9 -1.4,-20.7 -1.1,-3.6 -1.6,-6.6 -1.2,-6.8 0.4,-0.1 11.1,-6.4 23.8,-14.1 l 23.1,-13.8 0.6,14.1 c 0.7,17.7 2.2,23 8,28.3 2.4,2.2 6.5,4.8 9.3,5.8 7.5,2.8 7.1,3.2 -1.8,1.9 -4.6,-0.6 -10.4,-1.4 -13,-1.7 l -4.7,-0.6 -5.1,15.3 c -2.7,8.5 -5,16.6 -5,18 0,1.4 3.3,9.1 7.4,17.3 l 7.4,14.8 -12.2,12.5 c -8.8,9 -15.3,17.1 -23.6,29 l -11.5,16.5 -1.2,9.3 c -0.6,5.2 -1.3,9.6 -1.6,9.8 -0.2,0.3 -3.3,0.9 -6.8,1.5 -3.5,0.6 -6.8,1.5 -7.2,1.9 -0.8,0.7 10,10.4 20.7,18.5 l 3.8,2.9 1.9,-2.6 c 5.7,-7.7 4.2,-8.5 15.8,8.6 5.7,8.5 11.3,16.6 12.5,18.1 l 2.2,2.7 4.3,-5.6 4.3,-5.7 -0.9,-12 c -0.4,-6.5 -0.6,-11.9 -0.3,-11.9 0.3,0.1 5.8,6.8 12.3,15.1 8.6,10.9 12.3,14.9 13.5,14.5 0.9,-0.3 4.6,-1 8.2,-1.7 4.1,-0.7 7.4,-2 9,-3.5 4.1,-3.7 13.7,-9.1 17.6,-9.9 3,-0.5 4.3,-0.1 7.5,2.1 2.7,1.8 4.6,2.4 6.2,2 2.3,-0.5 8.4,-6.4 10.3,-9.9 0.8,-1.5 1.6,-1.4 7.7,0.8 4,1.5 9,2.5 12.1,2.5 3,0 6.7,0.3 8.4,0.6 l 3.1,0.6 -1.7,3.5 -1.7,3.5 -6.2,-0.5 c -7.5,-0.7 -18.1,0.8 -20.5,3 -1,0.9 -3.1,4.1 -4.6,7.2 -3,6 -9.6,15.4 -20.5,29.4 l -6.9,8.7 3.1,4.8 c 4.9,7.7 10,19.5 10.9,25.6 1,6.3 0.1,14 -2.2,18.4 -1.5,2.8 -1.4,3 1.5,5.8 l 2.9,2.8 5.7,-2.8 5.6,-2.7 -0.6,11.5 -0.6,11.6 5.7,1.6 c 3.1,0.9 6,1.8 6.4,2 0.3,0.2 4.3,-3.9 8.8,-9.1 4.5,-5.2 8.5,-9.5 8.9,-9.5 0.3,0 1.4,2.3 2.4,5 l 1.8,5 -6.1,7.9 c -3.3,4.4 -6,8.5 -6,9.1 0,0.7 1,2.5 2.1,4.2 2,2.7 2,3.3 0.9,6.9 -0.7,2.1 -1.7,3.9 -2.2,3.9 -0.4,0 -5.2,-0.7 -10.5,-1.6 -5.3,-0.8 -9.9,-1.1 -10.3,-0.7 -0.8,0.9 -4,12.7 -4,14.5 0,0.7 3.4,3.8 7.5,6.7 6.7,4.9 7.5,5.8 7.5,8.8 0,4 -0.9,5 -13.3,13.7 -5.4,3.8 -9.6,7.5 -9.3,8.1 0.2,0.6 1,4.6 1.6,8.9 0.7,4.3 1.9,8.3 2.6,9.1 0.7,0.7 7.2,5.4 14.4,10.6 7.2,5.1 12.9,9.6 12.8,10 -0.2,0.4 -2.2,2.8 -4.6,5.4 -3.1,3.3 -4.7,4.3 -5.5,3.6 -0.7,-0.5 -5.2,-6.4 -10.2,-13 -4.9,-6.6 -9.2,-12 -9.5,-12 -0.3,0 -2.4,1.7 -4.7,3.7 l -4.2,3.7 3.9,6.3 c 3,4.7 3.8,6.7 3.1,8 -1.2,2.2 -8,8.7 -8.4,8.1 -0.3,-0.2 -1.9,-4.5 -3.7,-9.6 -2.6,-7.5 -3.7,-9.3 -5.9,-10.2 -11.3,-4.3 -15.4,-3.9 -21.6,1.8 -8.5,7.8 -12.2,7 -21.3,-4.5 l -6.7,-8.6 -5.5,6.1 -5.5,6.1 h -8.8 c -10.1,0 -9.9,0.4 -5,-9.3 l 2.4,-4.9 -5.7,-6.1 C 228.5,783.8 221.7,777 221,777.2 c -0.4,0.2 -4.2,3.5 -8.4,7.4 l -7.7,7.2 8,16 8,16.1 -10.5,12.8 c -9.7,11.8 -11.3,13.3 -20.1,18.5 -5.2,3.1 -10,5.9 -10.5,6 -1,0.4 6.3,19.7 7.4,19.8 0.4,0 7.2,-4.7 15.1,-10.5 8,-5.8 14.7,-10.5 15,-10.5 0.3,0 4.3,4.9 8.9,10.8 l 8.5,10.8 0.6,21.2 0.6,21.2 -23.7,20.7 c -13,11.3 -24.6,21.4 -25.7,22.3 -1.8,1.6 -2.9,1.6 -12.5,0.4 -5.8,-0.7 -11.2,-1.3 -12.1,-1.4 -0.9,0 -5.1,4.5 -9.5,9.9 -5.2,6.6 -8.6,10 -9.9,10 -1.1,0 -11.2,-1.5 -22.5,-3.3 -11.3,-1.8 -20.6,-3.3 -20.7,-3.1 -0.2,0.1 -1.2,9.1 -2.3,20 -1.5,15.7 -1.7,20.1 -0.7,20.7 0.6,0.5 3.2,2 5.7,3.3 3.8,2 5.3,3.8 9.5,11.4 l 5,9 7.5,0.5 c 4.1,0.4 9.7,0.8 12.3,1 l 4.8,0.3 6.6,-7.4 6.6,-7.4 12.6,0.3 12.6,0.3 1.7,16 c 0.9,8.8 1.7,17.1 1.7,18.4 l 0.1,2.4 9.3,-0.7 9.2,-0.7 4.6,-4.6 4.6,-4.5 6.4,2 6.4,2 4.8,15 4.8,15 11,9.3 11.1,9.2 9,-1.2 9.1,-1.2 10.6,-10.9 10.6,-11 7,1.8 c 7.1,1.8 16.5,6 16.5,7.3 0,0.4 -5,4.8 -11.1,9.7 -10.7,8.7 -11.3,9.4 -14.6,16.9 -2,4.3 -3.8,9.1 -4.2,10.7 -0.6,2.9 -0.9,3 -14.1,5.8 -7.4,1.6 -14.2,2.9 -15,3 -0.8,0.1 -9.7,-5.1 -19.8,-11.5 L 221,1118 l -20.2,0.5 c -23.4,0.6 -19.6,-1.5 -29.8,16.5 l -6.6,11.5 -6.5,0.3 -6.5,0.3 -4,-7.5 -4,-7.5 -7.1,7.2 -7.1,7.2 3.3,10.8 3.3,10.8 -17.2,12.8 -17.1,12.7 -4.9,-1.7 c -2.7,-0.9 -5.5,-1.5 -6.1,-1.2 -0.7,0.2 -3.2,4.2 -5.6,8.8 l -4.4,8.4 -8.7,4.1 -8.7,4.2 -3,7.6 -2.9,7.7 -23.9,0.7 c -13.1,0.4 -25.8,1.1 -28.3,1.5 l -4.5,0.8 0.3,7.5 c 0.2,4.1 0.4,7.6 0.5,7.7 0.2,0.1 3.6,0.9 7.7,1.7 14.1,3 24.4,8.2 29.2,14.8 1.2,1.8 2.7,5.7 3.3,8.6 l 1.1,5.4 7.1,-6.6 c 7.7,-7.2 12.5,-13.8 14.9,-20.8 0.8,-2.5 2.6,-5.6 3.9,-6.8 2.1,-2 3.1,-2.2 7.6,-1.7 2.9,0.4 7.4,1.9 10.5,3.7 l 5.4,3 5,-10 c 2.8,-5.5 5.3,-10 5.7,-10 1.6,0 26.9,11.8 58.2,27.1 18.9,9.3 35.1,16.9 36,16.9 2.8,0 15.7,-22.4 29.4,-51 3.8,-8 7,-14.6 7.1,-14.7 0.1,-0.1 10.7,3 23.6,6.8 53.4,15.8 103.8,29.9 107.1,29.9 1.9,0 3.9,-6.9 3.9,-13.5 0,-6.3 0.1,-6.5 2.6,-6.5 1.4,0 15.2,0.7 30.6,1.6 15.4,0.9 28.2,1.3 28.5,1 0.3,-0.3 -0.8,-6 -2.5,-12.8 -1.7,-6.7 -3,-12.4 -2.8,-12.5 0.1,-0.1 12.4,8.5 27.2,19.2 24.4,17.6 27.3,19.5 31,19.5 2.2,0 16.8,-0.9 32.4,-2 l 28.3,-2 16.2,10.5 16.3,10.6 30.8,-13.2 30.7,-13.2 3.7,4.3 3.6,4.2 8.7,-9.9 8.6,-9.9 15.1,-1.5 c 8.3,-0.9 15.3,-1.9 15.6,-2.2 1.1,-1.1 9.1,-45.2 8.2,-45.5 -0.4,-0.2 -11.6,1.3 -24.9,3.4 -13.6,2.1 -24.4,3.3 -24.8,2.8 -0.5,-0.5 -2.1,-6.1 -3.6,-12.4 -1.5,-6.3 -3.1,-11.9 -3.5,-12.3 -0.4,-0.5 -6.9,-1.3 -14.5,-1.8 -23.2,-1.8 -24.6,-4.2 -3.3,-5.9 6.8,-0.5 16.6,-1 21.8,-1 h 9.5 l 6.7,-12.7 6.7,-12.8 -9.5,-2.9 c -5.2,-1.6 -9.4,-3.3 -9.4,-3.8 0,-0.4 6.9,-0.6 15.3,-0.2 l 15.3,0.5 7.7,-4.8 c 4.2,-2.6 7.7,-5.2 7.7,-5.6 0,-0.4 -2.5,-4.2 -5.5,-8.2 -3,-4.1 -5.5,-7.7 -5.5,-7.9 0,-0.2 4.8,0.9 10.7,2.5 l 10.8,2.8 2.4,-2.2 c 1.3,-1.2 6.6,-7.1 11.7,-13.1 25.1,-29.2 38.5,-56.9 37.1,-77.1 -0.5,-7 -1.1,-9.1 -5.4,-17.5 -10.4,-20.6 -34.6,-39.4 -64.3,-49.8 -13.4,-4.7 -23.9,-6.5 -35.4,-6 -11.3,0.5 -16.4,2.3 -20.9,7.8 -3,3.5 -5.1,10.1 -4.5,14.2 0.6,3.6 -0.9,3.6 -8.7,-0.1 -10.1,-4.7 -16.4,-12.9 -16.5,-21.3 0,-5.3 2.5,-7.1 15.4,-11.4 7.3,-2.4 12.1,-4.6 13.9,-6.4 8.2,-7.8 4.5,-27.1 -11.4,-60.2 -4.8,-9.8 -7.9,-17.5 -7.7,-18.9 0.2,-1.9 1.4,-2.5 7.1,-3.9 3.7,-0.9 7.3,-2.2 7.9,-2.8 3.4,-3.4 -0.7,-14.8 -13.5,-36.9 -16.1,-27.7 -16.2,-29.3 -1.7,-39 6.4,-4.4 8.4,-6.8 7.6,-9.6 -0.9,-3.7 -8.2,-11.4 -19.1,-20 -5.5,-4.3 -10.8,-8.9 -11.8,-10.1 -0.9,-1.1 -4.7,-7.8 -8.4,-14.8 -13,-24.8 -22.5,-32.9 -42.2,-35.6 -3.9,-0.6 -8.6,-1.9 -10.4,-2.9 -7.1,-4.1 -12.5,-16.2 -15.3,-34.3 -3.6,-23.8 -0.5,-79.4 6.2,-108 2,-8.5 1.1,-10.5 -7.2,-15.5 -12.9,-7.8 -18.9,-17 -25.5,-39 -6.9,-23.2 -12,-32 -21.3,-36.7 -3.5,-1.8 -5.1,-2 -12.6,-1.4 -20,1.5 -29.1,2.5 -38.8,4.5 -11.6,2.3 -23.4,2.7 -27.1,0.8 -3.3,-1.6 -6.4,-7.1 -5.6,-9.7 1.7,-5.3 11.6,-7.5 27.3,-5.9 12.1,1.2 12.2,1.2 15.6,-7.3 2.8,-7 4.7,-7.2 15.7,-1.5 4.6,2.5 10.3,5.1 12.7,5.8 4,1.2 4.5,1.1 6.5,-1 1.9,-1.9 2.2,-3.2 2.1,-10.4 -0.2,-13.2 -5,-21.9 -13.9,-25.1 l -4,-1.3 25.6,-25.9 c 34.3,-34.8 46,-48.4 57.3,-66.4 6,-9.6 8.5,-16.6 9.6,-26.2 1.4,-12.1 3.8,-15.9 14.3,-21.9 7.2,-4.3 9.4,-6.8 10.7,-12.3 1.2,-5.3 0.1,-8.5 -4.3,-12.8 -12.2,-11.8 -56.3,-24.3 -88.4,-25.1 l -10.1,-0.2 -12,-6.3 c -15.1,-7.8 -16.6,-7.9 -26.7,-1.2 -10.6,6.9 -18.2,10.3 -22.5,10.1 -6.6,-0.4 -16.5,-0.5 -26.1,-0.2 -14.1,0.5 -16.2,-1.4 -11.8,-10.6 2.6,-5.3 9.1,-11.1 13.5,-11.9 2.5,-0.5 4.1,-0.1 6.6,1.7 2.3,1.7 4.7,2.4 8,2.4 4.6,0 5,-0.3 12.3,-7.5 10.6,-10.5 10.2,-11.6 -4.6,-12.9 -8.5,-0.7 -11,-2 -9.3,-4.9 0.6,-0.9 17.5,-13.2 37.6,-27.2 52.9,-36.9 49.9,-34.6 56.5,-44.8 6.8,-10.5 11.3,-20.1 11.3,-24.1 0,-2.3 -0.7,-3.2 -3.2,-4.4 -10.4,-4.8 -45.1,-8.8 -76.7,-8.6 -21.7,0 -23.9,0.4 -26.4,4.9 -2.9,5.3 -8.9,12.3 -9.7,11.3 -0.4,-0.4 -1.2,-4 -1.9,-7.9 C 372.4,25.7 369.4,19.6 362.5,12.1 354.2,3.2 345.1,-1.7 341.4,0.8 Z" />
</svg>
